<svg xmlns="http://www.w3.org/2000/svg" aria-hidden="true" style="position:absolute;width:0;height:0;overflow:hidden">
  <defs>
    <symbol id="icon-account" viewBox="0 0 30 32">
      <path d="M20.026 8a4.997 4.997 0 0 0-5-5 4.997 4.997 0 0 0-5 5 4.997 4.997 0 0 0 5 5 4.997 4.997 0 0 0 5-5zm-13 0a8 8 0 1 1 16 0 8 8 0 0 1-16 0zM4.107 29h21.838a8.146 8.146 0 0 0-8.063-7H12.17c-4.106 0-7.506 3.044-8.063 7zm-3.081 1.144C1.026 23.988 6.014 19 12.17 19h5.712c6.156 0 11.144 4.988 11.144 11.144A1.856 1.856 0 0 1 27.17 32H2.882a1.856 1.856 0 0 1-1.856-1.856z"/>
    </symbol>
    <symbol id="icon-archive" viewBox="0 0 32 32">
      <path d="M3.746 5.855v2.824h24.471V5.855H3.746zm-.941-2.823h26.353a1.88 1.88 0 0 1 1.882 1.882V9.62a1.88 1.88 0 0 1-1.882 1.882H2.805A1.88 1.88 0 0 1 .923 9.62V4.914a1.88 1.88 0 0 1 1.882-1.882zm7.529 12.706c0-.782.629-1.412 1.412-1.412h8.471c.782 0 1.412.629 1.412 1.412S21 17.15 20.217 17.15h-8.471a1.409 1.409 0 0 1-1.412-1.412zM2.805 25.62V13.385h2.824V25.62c0 .518.424.941.941.941h18.824a.944.944 0 0 0 .941-.941V13.385h2.824V25.62a3.769 3.769 0 0 1-3.765 3.765H6.57a3.769 3.769 0 0 1-3.765-3.765z"/>
    </symbol>
    <symbol id="icon-arrow" viewBox="0 0 54 32">
      <path d="M25.152 30.5c.94.94 2.46.94 3.39 0l19.21-19.2c.94-.94.94-2.46 0-3.39s-2.46-.94-3.39 0l-17.51 17.5L9.352 7.9c-.94-.94-2.46-.94-3.39 0s-.94 2.46 0 3.39l19.19 19.21z"/>
    </symbol>
    <symbol id="icon-content" viewBox="0 0 33 32">
      <path d="M10.62 20.348v1.304h1.739v-1.304H10.62zm2.391 2.435a1.305 1.305 0 0 1-.652.174H10.62c-.72 0-1.304-.584-1.304-1.304V10.349c0-.72.584-1.304 1.304-1.304h1.739c.236 0 .459.063.652.174.193-.111.416-.174.652-.174h1.739c.56 0 1.035.351 1.223.845.152-.166.351-.291.581-.353l1.617-.448c.671-.185 1.361.226 1.541.918l.489 1.88.163.63 1.842 7.106.323 1.25c.179.693-.217 1.405-.889 1.59l-1.62.448c-.671.185-1.361-.226-1.541-.918l-.489-1.88-.163-.63-1.677-6.473-.098-.372v9.016c0 .72-.584 1.304-1.304 1.304h-1.739c-.236 0-.459-.062-.652-.174zm.653-1.131h1.739v-1.304h-1.739v1.304zm-1.305-11.304H10.62v1.304h1.739v-1.304zm0 2.608H10.62v6.087h1.739v-6.087zm1.305-1.304h1.739v-1.304h-1.739v1.304zm1.739 7.391v-6.087h-1.739v6.087h1.739zm5.872-.334-1.516-5.842-1.535.424 1.516 5.842 1.535-.424zm-1.207 1.688.323 1.242 1.533-.424v-.011l-.318-1.228-1.535.424-.003-.003zm-2.171-8.37 1.535-.424-.323-1.242-1.533.424v.011l.318 1.228.003.003z"/>
    </symbol>
    <symbol id="icon-copy-link" viewBox="0 0 32 32">
      <path d="M28.231 16.735a6.77 6.77 0 0 0-9.242-9.882l-.287.254a1.13 1.13 0 1 0 1.487 1.703l.287-.254a4.512 4.512 0 0 1 6.16 6.588l-5.332 5.327a4.512 4.512 0 0 1-6.588-6.16l.221-.254c.409-.471.362-1.181-.108-1.595s-1.181-.362-1.595.108l-.221.254a6.771 6.771 0 0 0 9.888 9.242l5.332-5.332zM3.732 15.681a6.765 6.765 0 0 0 0 9.572 6.77 6.77 0 0 0 9.247.306l.287-.254a1.13 1.13 0 1 0-1.487-1.703l-.287.254a4.512 4.512 0 0 1-6.16-6.588l5.332-5.322a4.512 4.512 0 0 1 6.588 6.16l-.254.287c-.409.471-.362 1.181.108 1.595s1.181.362 1.595-.108l.254-.287a6.77 6.77 0 0 0-9.882-9.247l-5.341 5.336z"/>
    </symbol>
    <symbol id="icon-cross" viewBox="0 0 26 32">
      <path d="M22.363 8.563a1.499 1.499 0 0 0-2.119-2.119l-7.437 7.438-7.444-7.444c-.588-.588-1.538-.588-2.119 0s-.587 1.537 0 2.119l7.438 7.438-7.444 7.444c-.587.588-.587 1.538 0 2.119s1.537.587 2.119 0l7.438-7.438 7.444 7.444c.588.587 1.538.587 2.119 0s.587-1.538 0-2.119l-7.438-7.437 7.444-7.444z"/>
    </symbol>
    <symbol id="icon-delete" viewBox="0 0 28 32">
      <path d="M10.952 4.185 9.834 5.856h8.529l-1.118-1.671a.48.48 0 0 0-.394-.212h-5.512a.464.464 0 0 0-.394.212h.006zm8.647-1.565 2.159 3.235h4.106c.782 0 1.412.629 1.412 1.412s-.629 1.412-1.412 1.412h-.471v17.882c0 2.6-2.106 4.706-4.706 4.706H7.51a4.705 4.705 0 0 1-4.706-4.706V8.679h-.471c-.782 0-1.412-.629-1.412-1.412s.629-1.412 1.412-1.412h4.106l2.159-3.241a3.307 3.307 0 0 1 2.741-1.465h5.512c1.1 0 2.129.553 2.741 1.465l.006.006zM5.628 8.679v17.882a1.88 1.88 0 0 0 1.882 1.882h13.177a1.88 1.88 0 0 0 1.882-1.882V8.679H5.628zm4.706 3.764v12.235c0 .518-.424.941-.941.941s-.941-.424-.941-.941V12.443c0-.518.424-.941.941-.941s.941.424.941.941zm4.706 0v12.235c0 .518-.424.941-.941.941s-.941-.424-.941-.941V12.443c0-.518.424-.941.941-.941s.941.424.941.941zm4.706 0v12.235c0 .518-.424.941-.941.941s-.941-.424-.941-.941V12.443c0-.518.424-.941.941-.941s.941.424.941.941z"/>
    </symbol>
    <symbol id="icon-desk" viewBox="0 0 33 32">
      <path d="M21.683 10.976H10.862a.387.387 0 0 0-.386.386V16H22.07v-4.638a.387.387 0 0 0-.387-.386zM23.229 16v2.319c0 .853-.693 1.546-1.546 1.546h-3.568l.193 1.159h1.249c.321 0 .58.258.58.58s-.258.58-.58.58h-6.57a.58.58 0 1 1 0-1.16h1.249l.193-1.159h-3.568a1.547 1.547 0 0 1-1.546-1.546v-6.957c0-.853.693-1.546 1.546-1.546h10.821c.853 0 1.546.693 1.546 1.546V16zm-12.754 1.159v1.159c0 .213.174.387.386.387h10.821a.388.388 0 0 0 .387-.387v-1.159H10.475zm4.935 3.865h1.722l-.193-1.159h-1.336l-.193 1.159z"/>
    </symbol>
    <symbol id="icon-duplicate" viewBox="0 0 32 32">
      <path d="M27.275 23.738H15.981a3.769 3.769 0 0 1-3.765-3.765V4.914a3.769 3.769 0 0 1 3.765-3.765h8.241c.747 0 1.465.3 1.994.829l3.994 3.994c.529.529.829 1.247.829 1.994v12.006a3.769 3.769 0 0 1-3.765 3.765zM4.687 8.679h5.647v2.824H4.687a.944.944 0 0 0-.941.941v15.059c0 .518.424.941.941.941h11.294a.944.944 0 0 0 .941-.941v-1.882h2.824v1.882a3.769 3.769 0 0 1-3.765 3.765H4.687a3.769 3.769 0 0 1-3.765-3.765V12.444a3.769 3.769 0 0 1 3.765-3.765z"/>
    </symbol>
    <symbol id="icon-edit" viewBox="0 0 32 32">
      <path d="m26.863 4.614.712.712a1.406 1.406 0 0 1 0 1.994l-1.712 1.718-2.712-2.712 1.712-1.712a1.406 1.406 0 0 1 1.994 0h.006zM13.264 16.22l7.894-7.9 2.712 2.712-7.9 7.894a1.406 1.406 0 0 1-.612.359l-3.441.982.982-3.441c.065-.229.188-.441.359-.612l.006.006zm9.605-13.6-11.606 11.6a4.2 4.2 0 0 0-1.076 1.829l-1.682 5.882a1.412 1.412 0 0 0 1.747 1.747l5.882-1.682a4.244 4.244 0 0 0 1.829-1.077l11.606-11.6a4.235 4.235 0 0 0 0-5.988l-.712-.712a4.235 4.235 0 0 0-5.988 0zM6.099 4.914A5.176 5.176 0 0 0 .923 10.09v16a5.176 5.176 0 0 0 5.176 5.176h16a5.176 5.176 0 0 0 5.176-5.176v-6.588c0-.782-.629-1.412-1.412-1.412s-1.412.629-1.412 1.412v6.588c0 1.3-1.053 2.353-2.353 2.353h-16a2.352 2.352 0 0 1-2.353-2.353v-16c0-1.3 1.053-2.353 2.353-2.353h6.588c.782 0 1.412-.629 1.412-1.412s-.629-1.412-1.412-1.412H6.098z"/>
    </symbol>
    <symbol id="icon-email" viewBox="0 0 30 32">
      <path fill="#737373" d="M3.765 8.433a.944.944 0 0 0-.941.941v1.3l10.147 8.329c1.218 1 2.965 1 4.182 0l10.141-8.329v-1.3a.944.944 0 0 0-.941-.941H3.765zm-.941 5.894v10.106c0 .518.424.941.941.941h22.588a.944.944 0 0 0 .941-.941V14.327l-8.353 6.859a6.118 6.118 0 0 1-7.765 0l-8.353-6.859zM0 9.374a3.769 3.769 0 0 1 3.765-3.765h22.588a3.769 3.769 0 0 1 3.765 3.765v15.059a3.769 3.769 0 0 1-3.765 3.765H3.765A3.769 3.769 0 0 1 0 24.433V9.374z" style="fill:var(--color1, #737373)"/>
    </symbol>
    <symbol id="icon-eye" viewBox="0 0 32 32">
      <path fill="#737373" d="M2.61 4.784a1.144 1.144 0 0 0-1.41 1.8l28.191 22.095a1.144 1.144 0 0 0 1.41-1.8l-5.01-3.924c1.886-1.933 3.162-4.1 3.805-5.638a1.515 1.515 0 0 0 0-1.171c-.71-1.7-2.2-4.176-4.429-6.243C22.929 7.817 19.848 6.065 16 6.065c-3.248 0-5.952 1.252-8.062 2.895L2.609 4.784zm7.19 5.633C11.524 9.193 13.595 8.35 16 8.35c3.105 0 5.657 1.41 7.614 3.224 1.833 1.705 3.1 3.729 3.747 5.157-.6 1.333-1.743 3.181-3.376 4.805l-2.562-2.01a6.063 6.063 0 0 0 .676-2.795 6.095 6.095 0 0 0-6.095-6.095 6.089 6.089 0 0 0-4.009 1.5L9.8 10.417zm9.767 7.658-3.881-3.043a3.05 3.05 0 0 0 .219-2.11H16a3.809 3.809 0 0 1 3.567 5.153zm.447 6.204a10.128 10.128 0 0 1-4.014.833c-3.105 0-5.657-1.41-7.614-3.224-1.833-1.705-3.1-3.728-3.748-5.157a16.083 16.083 0 0 1 1.876-3.086l-1.795-1.414c-1.086 1.414-1.862 2.824-2.314 3.914a1.515 1.515 0 0 0 0 1.171c.71 1.7 2.2 4.176 4.429 6.243 2.238 2.086 5.319 3.838 9.167 3.838 2.276 0 4.281-.614 6.009-1.548l-1.995-1.571zM9.905 16.732a6.095 6.095 0 0 0 7.914 5.819l-2.676-2.105a3.834 3.834 0 0 1-2.557-2.014l-2.671-2.105c-.01.133-.014.267-.014.405h.005z" style="fill:var(--color1, #737373)"/>
    </symbol>
    <symbol id="icon-game" viewBox="0 0 33 32">
      <path d="M28.438 10.04c-2.28-4.548-6.845-7.373-11.916-7.373C9.17 2.667 3.189 8.648 3.189 16S9.17 29.333 16.522 29.333c5.071 0 9.636-2.825 11.916-7.373a1.335 1.335 0 0 0-.529-1.755L20.545 16l7.363-4.204a1.335 1.335 0 0 0 .531-1.756zm-11.244 4.803a1.331 1.331 0 0 0 0 2.314l8.231 4.7a10.598 10.598 0 0 1-8.902 4.81c-5.881 0-10.667-4.785-10.667-10.667S10.641 5.333 16.523 5.333a10.597 10.597 0 0 1 8.903 4.808l-8.231 4.701z"/>
      <path d="M15.855 12a2 2 0 1 0 .001-3.999A2 2 0 0 0 15.855 12z"/>
    </symbol>
    <symbol id="icon-groups" viewBox="0 0 33 32">
      <path d="M12.446 13.913a1.74 1.74 0 1 0 0-3.48 1.74 1.74 0 0 0 0 3.48zm8 0a1.74 1.74 0 1 0 0-3.48 1.74 1.74 0 0 0 0 3.48zm-11.13 3.015c0 .254.209.463.463.463h4.654a2.776 2.776 0 0 1-.9-2.572 2.3 2.3 0 0 0-.97-.211h-.928a2.32 2.32 0 0 0-2.319 2.32zm8.811.463h4.639a.463.463 0 0 0 .463-.463c0-1.28-1.039-2.32-2.32-2.32h-.926a2.33 2.33 0 0 0-.97.211 2.785 2.785 0 0 1-.9 2.572h.015-.002zm-1.855-3.13a1.048 1.048 0 0 1 .737.305 1.033 1.033 0 0 1 .305.738 1.048 1.048 0 0 1-.643.964 1.048 1.048 0 0 1-1.136-.226 1.033 1.033 0 0 1-.305-.738 1.048 1.048 0 0 1 .643-.964c.126-.052.262-.079.399-.079zm0 3.13a2.09 2.09 0 0 0 2.087-2.087 2.09 2.09 0 0 0-2.087-2.087 2.09 2.09 0 0 0-2.087 2.087 2.09 2.09 0 0 0 2.087 2.087zm-1.276 1.739h2.552c.865 0 1.591.591 1.796 1.391h-6.143c.207-.8.933-1.391 1.796-1.391zm0-1.043a2.899 2.899 0 0 0-2.898 2.898c0 .32.259.58.58.58h7.187a.58.58 0 0 0 .58-.58c0-1.6-1.298-2.898-2.898-2.898h-2.552z"/>
    </symbol>
    <symbol id="icon-invite-teammates" viewBox="0 0 34 32">
      <path fill="#6a28ea" d="M1.058 26.135a8.913 8.913 0 0 1 8.84-7.735h4.57a8.913 8.913 0 0 1 8.835 7.735c.05.385.075.78.075 1.18 0 .82-.665 1.485-1.485 1.485H2.468c-.82 0-1.485-.665-1.485-1.485 0-.4.025-.795.075-1.18zM5.783 9.6a6.402 6.402 0 0 1 6.4-6.4 6.402 6.402 0 0 1 6.4 6.4 6.402 6.402 0 0 1-6.4 6.4 6.402 6.402 0 0 1-6.4-6.4zm10.4 0a4.003 4.003 0 0 0-4-4 4.003 4.003 0 0 0-4 4 4.003 4.003 0 0 0 4 4 4.003 4.003 0 0 0 4-4zM9.898 20.8a6.511 6.511 0 0 0-6.45 5.6h17.475a6.354 6.354 0 0 0-.845-2.4 6.511 6.511 0 0 0-5.61-3.2h-4.57zm21.55 8h-6.845c.245-.44.38-.945.38-1.485 0-3.25-1.475-6.16-3.795-8.09.215-.02.435-.025.66-.025h3.07a8.064 8.064 0 0 1 8.065 8.065c0 .85-.69 1.535-1.535 1.535zM22.583 16c-1.55 0-2.95-.63-3.965-1.645A7.96 7.96 0 0 0 20.183 9.6c0-1.34-.33-2.605-.915-3.715A5.598 5.598 0 0 1 22.583 4.8c3.095 0 5.6 2.505 5.6 5.6s-2.505 5.6-5.6 5.6z" style="fill:var(--color2, #6a28ea)"/>
    </symbol>
    <symbol id="icon-more" viewBox="0 0 10 32">
      <path d="M5.426 23a3.004 3.004 0 0 0-3 3 2.998 2.998 0 0 0 3 3 2.998 2.998 0 0 0 3-3 2.998 2.998 0 0 0-3-3zm0-10a3.004 3.004 0 0 0-3 3 3.004 3.004 0 0 0 3 3 2.998 2.998 0 0 0 3-3 2.998 2.998 0 0 0-3-3zm3-7a3.014 3.014 0 0 0-.878-2.121 2.983 2.983 0 0 0-2.121-.878 3.014 3.014 0 0 0-2.121.878A2.983 2.983 0 0 0 2.428 6a3.014 3.014 0 0 0 .878 2.121 2.983 2.983 0 0 0 2.121.878 3.014 3.014 0 0 0 2.121-.878A2.983 2.983 0 0 0 8.426 6z"/>
    </symbol>
    <symbol id="icon-notifications" viewBox="0 0 29 32">
      <path d="M14.692.762a1.903 1.903 0 0 0-1.905 1.905v1.065c-4.315.685-7.619 4.423-7.619 8.935v1.988c0 2.702-.923 5.327-2.607 7.435l-.887 1.113a1.426 1.426 0 0 0 1.113 2.321h23.809a1.429 1.429 0 0 0 1.113-2.321l-.887-1.107a11.94 11.94 0 0 1-2.607-7.44v-1.988c0-4.512-3.303-8.25-7.619-8.935V2.668A1.903 1.903 0 0 0 14.691.763zm0 5.714h.476a6.193 6.193 0 0 1 6.19 6.19v1.988c0 2.851.827 5.631 2.363 8.012H5.662a14.782 14.782 0 0 0 2.363-8.012v-1.988a6.193 6.193 0 0 1 6.19-6.19h.476zm3.809 20.953h-7.619c0 1.012.399 1.982 1.113 2.696s1.685 1.113 2.696 1.113 1.982-.399 2.696-1.113a3.81 3.81 0 0 0 1.113-2.696z"/>
    </symbol>
    <symbol id="icon-password" viewBox="0 0 26 32">
      <path fill="#737373" d="M8.471 9.374v3.765h9.412V9.374c0-2.6-2.106-4.706-4.706-4.706S8.471 6.774 8.471 9.374zm-2.824 3.765V9.374a7.53 7.53 0 0 1 15.058 0v3.765h1.882a3.769 3.769 0 0 1 3.765 3.765v11.294a3.769 3.769 0 0 1-3.765 3.765H3.763a3.769 3.769 0 0 1-3.765-3.765V16.904a3.769 3.769 0 0 1 3.765-3.765h1.882zm-2.823 3.765v11.294c0 .518.424.941.941.941h18.824a.944.944 0 0 0 .941-.941V16.904a.944.944 0 0 0-.941-.941H3.765a.944.944 0 0 0-.941.941z" style="fill:var(--color1, #737373)"/>
    </symbol>
    <symbol id="icon-people" viewBox="0 0 34 32">
      <path d="M.701 26.135a8.913 8.913 0 0 1 8.84-7.735h4.57a8.913 8.913 0 0 1 8.835 7.735c.05.385.075.78.075 1.18 0 .82-.665 1.485-1.485 1.485H2.111c-.82 0-1.485-.665-1.485-1.485 0-.4.025-.795.075-1.18zM5.426 9.6a6.4 6.4 0 1 1 12.803.002A6.4 6.4 0 0 1 5.425 9.6zm10.4 0a4.003 4.003 0 0 0-4-4 4.003 4.003 0 0 0-4 4 4.003 4.003 0 0 0 4 4 4.003 4.003 0 0 0 4-4zM9.541 20.8a6.511 6.511 0 0 0-6.45 5.6h17.475a6.354 6.354 0 0 0-.845-2.4 6.511 6.511 0 0 0-5.61-3.2h-4.57zm21.55 8h-6.845c.245-.44.38-.945.38-1.485 0-3.25-1.475-6.16-3.795-8.09.215-.02.435-.025.66-.025h3.07a8.064 8.064 0 0 1 8.065 8.065c0 .85-.69 1.535-1.535 1.535zM22.226 16c-1.55 0-2.95-.63-3.965-1.645A7.96 7.96 0 0 0 19.826 9.6c0-1.34-.33-2.605-.915-3.715A5.598 5.598 0 0 1 22.226 4.8c3.095 0 5.6 2.505 5.6 5.6s-2.505 5.6-5.6 5.6z"/>
    </symbol>
    <symbol id="icon-plus" viewBox="0 0 29 32">
      <path d="M15.757 4.918c0-.802-.645-1.446-1.447-1.446s-1.447.645-1.447 1.446v9.643H3.22c-.802 0-1.447.645-1.447 1.446s.645 1.446 1.447 1.446h9.643v9.643c0 .802.645 1.446 1.447 1.446s1.447-.645 1.447-1.446v-9.643H25.4c.802 0 1.447-.645 1.447-1.446s-.645-1.446-1.447-1.446h-9.643V4.918z"/>
    </symbol>
    <symbol id="icon-policy" viewBox="0 0 24 32">
      <path fill="#f99fda" d="M.61 3.886A3.813 3.813 0 0 1 4.42.076h9.524v7.619c0 1.054.851 1.905 1.905 1.905h7.619v17.143a3.813 3.813 0 0 1-3.81 3.81H4.42a3.813 3.813 0 0 1-3.81-3.81V3.886zm6.666 11.428c-.524 0-.952.428-.952.952s.429.952.952.952H16.8c.524 0 .952-.429.952-.952s-.428-.952-.952-.952H7.276zm0 3.81c-.524 0-.952.428-.952.952s.429.952.952.952H16.8c.524 0 .952-.429.952-.952s-.428-.952-.952-.952H7.276zm0 3.809c-.524 0-.952.428-.952.952s.429.952.952.952H16.8c.524 0 .952-.429.952-.952s-.428-.952-.952-.952H7.276z" style="fill:var(--color3, #f99fda)"/>
      <path fill="#74074e" d="M23.467 9.6 13.943.076v7.619c0 1.054.851 1.905 1.905 1.905h7.619zM7.276 15.314c-.524 0-.952.428-.952.952s.429.952.952.952H16.8c.524 0 .952-.429.952-.952s-.428-.952-.952-.952H7.276zm0 3.81c-.524 0-.952.428-.952.952s.429.952.952.952H16.8c.524 0 .952-.429.952-.952s-.428-.952-.952-.952H7.276zm0 3.809c-.524 0-.952.428-.952.952s.429.952.952.952H16.8c.524 0 .952-.429.952-.952s-.428-.952-.952-.952H7.276z" style="fill:var(--color4, #74074e)"/>
    </symbol>
    <symbol id="icon-process" viewBox="0 0 24 32">
      <path fill="#5cceff" d="M.61 4.007A3.813 3.813 0 0 1 4.42.197h9.524v7.619c0 1.054.851 1.905 1.905 1.905h7.619v17.143a3.813 3.813 0 0 1-3.81 3.81H4.42a3.813 3.813 0 0 1-3.81-3.81V4.007zm6.666 11.429c-.524 0-.952.429-.952.952s.429.952.952.952H16.8c.524 0 .952-.428.952-.952s-.428-.952-.952-.952H7.276zm0 3.809c-.524 0-.952.429-.952.952s.429.952.952.952H16.8c.524 0 .952-.428.952-.952s-.428-.952-.952-.952H7.276zm0 3.81c-.524 0-.952.429-.952.952s.429.952.952.952H16.8c.524 0 .952-.428.952-.952s-.428-.952-.952-.952H7.276z" style="fill:var(--color5, #5cceff)"/>
      <path fill="#020044" d="M23.467 9.722 13.943.198v7.619c0 1.054.851 1.905 1.905 1.905h7.619zM7.276 15.436c-.524 0-.952.429-.952.952s.429.952.952.952H16.8c.524 0 .952-.428.952-.952s-.428-.952-.952-.952H7.276zm0 3.809c-.524 0-.952.429-.952.952s.429.952.952.952H16.8c.524 0 .952-.428.952-.952s-.428-.952-.952-.952H7.276zm0 3.81c-.524 0-.952.429-.952.952s.429.952.952.952H16.8c.524 0 .952-.428.952-.952s-.428-.952-.952-.952H7.276z" style="fill:var(--color6, #020044)"/>
    </symbol>
    <symbol id="icon-rename" viewBox="0 0 32 32">
      <path d="m3.064 22.379-1.353 4.594-.729 2.482a1.412 1.412 0 0 0 1.747 1.759l7.082-2.088a5.168 5.168 0 0 0 1.965-1.082c.082-.071.159-.147.235-.224L29.905 9.932a3.766 3.766 0 0 0 0-5.323l-2.318-2.324a3.762 3.762 0 0 0-5.323 0L4.37 20.179a5.218 5.218 0 0 0-1.306 2.2zm2.705.794c.1-.329.265-.635.494-.894.035-.035.065-.071.1-.106L19.804 8.738l3.647 3.647-13.435 13.441a2.384 2.384 0 0 1-1 .594l-4.6 1.353.947-3.224.406-1.376z"/>
    </symbol>
    <symbol id="icon-reports" viewBox="0 0 33 32">
      <path d="M12.359 21.217V10.782c0-.239.196-.435.435-.435h4.348v2.174c0 .481.389.87.87.87h2.174v7.826a.437.437 0 0 1-.435.435h-6.957a.437.437 0 0 1-.435-.435zm.435-12.174a1.74 1.74 0 0 0-1.739 1.739v10.435c0 .959.78 1.739 1.739 1.739h6.957a1.74 1.74 0 0 0 1.739-1.739v-7.976a1.74 1.74 0 0 0-.508-1.231L18.52 9.551a1.733 1.733 0 0 0-1.228-.508h-4.497zm4.13 7.609a.65.65 0 1 0-1.304 0v3.478a.65.65 0 1 0 1.304 0v-3.478zm2.392.87a.65.65 0 1 0-1.304 0v2.609a.65.65 0 1 0 1.304 0v-2.609zm-4.783.869a.65.65 0 1 0-1.304 0v1.739a.65.65 0 1 0 1.304 0v-1.739z"/>
    </symbol>
    <symbol id="icon-search" viewBox="0 0 32 32">
      <path d="M23.325 13.176a10.357 10.357 0 0 0-6.391-9.565A10.357 10.357 0 0 0 5.651 5.855a10.352 10.352 0 0 0 0 14.642 10.352 10.352 0 0 0 14.642 0 10.357 10.357 0 0 0 3.032-7.321zm-2.394 9.295a12.169 12.169 0 0 1-7.959 2.941C6.213 25.412.737 19.935.737 13.177S6.213.942 12.972.942s12.235 5.476 12.235 12.235c0 3.041-1.106 5.824-2.941 7.959l8.312 8.318c.365.365.365.965 0 1.329s-.965.365-1.329 0l-8.318-8.312z"/>
    </symbol>
  </defs>
</svg>
