<svg aria-hidden="true" style="position: absolute; width: 0; height: 0; overflow: hidden;" version="1.1" xmlns="http://www.w3.org/2000/svg" xmlns:xlink="http://www.w3.org/1999/xlink">
<defs>
<symbol id="icon-account" viewBox="0 0 30 32">
<path d="M20.026 8c0-1.326-0.527-2.598-1.464-3.536s-2.209-1.464-3.536-1.464c-1.326 0-2.598 0.527-3.536 1.464s-1.464 2.209-1.464 3.536c0 1.326 0.527 2.598 1.464 3.536s2.209 1.464 3.536 1.464c1.326 0 2.598-0.527 3.536-1.464s1.464-2.209 1.464-3.536zM7.026 8c0-2.122 0.843-4.157 2.343-5.657s3.535-2.343 5.657-2.343c2.122 0 4.157 0.843 5.657 2.343s2.343 3.535 2.343 5.657c0 2.122-0.843 4.157-2.343 5.657s-3.535 2.343-5.657 2.343c-2.122 0-4.157-0.843-5.657-2.343s-2.343-3.535-2.343-5.657zM4.107 29h21.838c-0.556-3.956-3.956-7-8.063-7h-5.712c-4.106 0-7.506 3.044-8.063 7zM1.026 30.144c0-6.156 4.988-11.144 11.144-11.144h5.712c6.156 0 11.144 4.988 11.144 11.144 0 1.025-0.831 1.856-1.856 1.856h-24.288c-1.025 0-1.856-0.831-1.856-1.856z"></path>
</symbol>
<symbol id="icon-archive" viewBox="0 0 32 32">
<path d="M3.746 5.855v2.824h24.471v-2.824h-24.471zM2.805 3.032h26.353c1.041 0 1.882 0.841 1.882 1.882v4.706c0 1.041-0.841 1.882-1.882 1.882h-26.353c-1.041 0-1.882-0.841-1.882-1.882v-4.706c0-1.041 0.841-1.882 1.882-1.882zM10.334 15.738c0-0.782 0.629-1.412 1.412-1.412h8.471c0.782 0 1.412 0.629 1.412 1.412s-0.629 1.412-1.412 1.412h-8.471c-0.782 0-1.412-0.629-1.412-1.412zM2.805 25.62v-12.235h2.824v12.235c0 0.518 0.424 0.941 0.941 0.941h18.824c0.518 0 0.941-0.424 0.941-0.941v-12.235h2.824v12.235c0 2.076-1.688 3.765-3.765 3.765h-18.824c-2.076 0-3.765-1.688-3.765-3.765z"></path>
</symbol>
<symbol id="icon-arrow" viewBox="0 0 54 32">
<path d="M25.152 30.5c0.94 0.94 2.46 0.94 3.39 0l19.21-19.2c0.94-0.94 0.94-2.46 0-3.39s-2.46-0.94-3.39 0l-17.51 17.5-17.5-17.51c-0.94-0.94-2.46-0.94-3.39 0s-0.94 2.46 0 3.39l19.19 19.21z"></path>
</symbol>
<symbol id="icon-arrow-top" viewBox="0 0 54 32">
<path d="M19.2793 16.9702C18.9277 16.9702 18.6152 16.853 18.3809 16.6187L11.7793 10.0171L5.13867 16.6187C4.66992 17.1265 3.84961 17.1265 3.38086 16.6187C2.87305 16.1499 2.87305 15.3296 3.38086 14.8608L10.8809 7.36084C11.3496 6.85303 12.1699 6.85303 12.6387 7.36084L20.1387 14.8608C20.6465 15.3296 20.6465 16.1499 20.1387 16.6187C19.9043 16.853 19.5918 16.9702 19.2793 16.9702Z" fill="#393939"/>
</symbol>
<symbol id="icon-arrow-left" viewBox="0 0 33 32">
<path fill="#fff" style="fill: var(--color1, #fff)" d="M16.298 3.81c6.733 0 12.19 5.458 12.19 12.19s-5.458 12.19-12.19 12.19c-6.733 0-12.19-5.458-12.19-12.19s5.458-12.19 12.19-12.19z"></path>
</symbol>
<symbol id="icon-content" viewBox="0 0 33 32">
<path d="M10.62 20.348v1.304h1.739v-1.304h-1.739zM13.011 22.783c-0.193 0.111-0.416 0.174-0.652 0.174h-1.739c-0.72 0-1.304-0.584-1.304-1.304v-11.304c0-0.72 0.584-1.304 1.304-1.304h1.739c0.236 0 0.459 0.063 0.652 0.174 0.193-0.111 0.416-0.174 0.652-0.174h1.739c0.56 0 1.035 0.351 1.223 0.845 0.152-0.166 0.351-0.291 0.581-0.353l1.617-0.448c0.671-0.185 1.361 0.226 1.541 0.918l0.489 1.88 0.163 0.63 1.842 7.106 0.323 1.25c0.179 0.693-0.217 1.405-0.889 1.59l-1.62 0.448c-0.671 0.185-1.361-0.226-1.541-0.918l-0.489-1.88-0.163-0.63-1.677-6.473-0.098-0.372v9.016c0 0.72-0.584 1.304-1.304 1.304h-1.739c-0.236 0-0.459-0.062-0.652-0.174zM13.664 21.652h1.739v-1.304h-1.739v1.304zM12.359 10.348h-1.739v1.304h1.739v-1.304zM12.359 12.956h-1.739v6.087h1.739v-6.087zM13.664 11.652h1.739v-1.304h-1.739v1.304zM15.403 19.043v-6.087h-1.739v6.087h1.739zM21.275 18.709l-1.516-5.842-1.535 0.424 1.516 5.842 1.535-0.424zM20.068 20.397l0.323 1.242 1.533-0.424c0-0.003 0-0.005 0-0.008v-0.003l-0.318-1.228-1.535 0.424-0.003-0.003zM17.897 12.027l1.535-0.424-0.323-1.242-1.533 0.424c0 0.003 0 0.005 0 0.011l0.318 1.228 0.003 0.003z"></path>
</symbol>
<symbol id="icon-copy-link" viewBox="0 0 32 32">
<path d="M28.231 16.735c2.645-2.645 2.645-6.932 0-9.576-2.518-2.518-6.56-2.654-9.242-0.306l-0.287 0.254c-0.471 0.409-0.518 1.125-0.108 1.595s1.125 0.518 1.595 0.108l0.287-0.254c1.788-1.562 4.48-1.473 6.16 0.207 1.76 1.76 1.76 4.616 0 6.381l-5.332 5.327c-1.76 1.76-4.621 1.76-6.381 0-1.68-1.68-1.769-4.372-0.207-6.16l0.221-0.254c0.409-0.471 0.362-1.181-0.108-1.595s-1.181-0.362-1.595 0.108l-0.221 0.254c-2.344 2.682-2.207 6.725 0.311 9.242 2.645 2.645 6.932 2.645 9.577 0l5.332-5.332zM3.732 15.681c-2.645 2.645-2.645 6.932 0 9.572 2.522 2.522 6.565 2.654 9.247 0.306l0.287-0.254c0.471-0.409 0.518-1.125 0.108-1.595s-1.125-0.518-1.595-0.108l-0.287 0.254c-1.788 1.562-4.48 1.473-6.16-0.207-1.76-1.76-1.76-4.616 0-6.381l5.332-5.322c1.76-1.76 4.616-1.76 6.381 0 1.68 1.68 1.769 4.372 0.207 6.16l-0.254 0.287c-0.409 0.471-0.362 1.181 0.108 1.595s1.181 0.362 1.595-0.108l0.254-0.287c2.348-2.682 2.212-6.725-0.306-9.247-2.645-2.645-6.932-2.645-9.576 0l-5.341 5.336z"></path>
</symbol>
<symbol id="icon-cross" viewBox="0 0 26 32">
<path d="M22.363 8.563c0.587-0.588 0.587-1.537 0-2.119s-1.538-0.588-2.119 0l-7.437 7.438-7.444-7.444c-0.588-0.588-1.538-0.588-2.119 0s-0.587 1.537 0 2.119l7.438 7.438-7.444 7.444c-0.587 0.588-0.587 1.538 0 2.119s1.537 0.587 2.119 0l7.438-7.438 7.444 7.444c0.588 0.587 1.538 0.587 2.119 0s0.587-1.538 0-2.119l-7.438-7.437 7.444-7.444z"></path>
</symbol>
<symbol id="icon-delete" viewBox="0 0 28 32">
<path d="M10.952 4.185l-1.118 1.671h8.529l-1.118-1.671c-0.088-0.129-0.235-0.212-0.394-0.212h-5.512c-0.159 0-0.306 0.076-0.394 0.212h0.006zM19.599 2.62l2.159 3.235h4.106c0.782 0 1.412 0.629 1.412 1.412s-0.629 1.412-1.412 1.412h-0.471v17.882c0 2.6-2.106 4.706-4.706 4.706h-13.177c-2.6 0-4.706-2.106-4.706-4.706v-17.882h-0.471c-0.782 0-1.412-0.629-1.412-1.412s0.629-1.412 1.412-1.412h4.106l2.159-3.241c0.612-0.912 1.641-1.465 2.741-1.465h5.512c1.1 0 2.129 0.553 2.741 1.465l0.006 0.006zM5.628 8.679v17.882c0 1.041 0.841 1.882 1.882 1.882h13.177c1.041 0 1.882-0.841 1.882-1.882v-17.882h-16.941zM10.334 12.443v12.235c0 0.518-0.424 0.941-0.941 0.941s-0.941-0.424-0.941-0.941v-12.235c0-0.518 0.424-0.941 0.941-0.941s0.941 0.424 0.941 0.941zM15.040 12.443v12.235c0 0.518-0.424 0.941-0.941 0.941s-0.941-0.424-0.941-0.941v-12.235c0-0.518 0.424-0.941 0.941-0.941s0.941 0.424 0.941 0.941zM19.746 12.443v12.235c0 0.518-0.424 0.941-0.941 0.941s-0.941-0.424-0.941-0.941v-12.235c0-0.518 0.424-0.941 0.941-0.941s0.941 0.424 0.941 0.941z"></path>
</symbol>
<symbol id="icon-desk" viewBox="0 0 33 32">
<path d="M21.683 10.976h-10.821c-0.213 0-0.386 0.174-0.386 0.386v4.638h11.594v-4.638c0-0.213-0.174-0.386-0.387-0.386zM23.229 16v2.319c0 0.853-0.693 1.546-1.546 1.546h-3.568l0.193 1.159h1.249c0.321 0 0.58 0.258 0.58 0.58s-0.258 0.58-0.58 0.58h-6.57c-0.321 0-0.58-0.259-0.58-0.58s0.258-0.58 0.58-0.58h1.249l0.193-1.159h-3.568c-0.853 0-1.546-0.693-1.546-1.546v-6.957c0-0.853 0.693-1.546 1.546-1.546h10.821c0.853 0 1.546 0.693 1.546 1.546v4.638zM10.475 17.159v1.159c0 0.213 0.174 0.387 0.386 0.387h4.239c0.007 0 0.015 0 0.019 0h2.3c0.007 0 0.014 0 0.019 0h4.244c0.213 0 0.387-0.174 0.387-0.387v-1.159h-11.594zM15.41 21.024h1.722l-0.193-1.159h-1.336l-0.193 1.159z"></path>
</symbol>
<symbol id="icon-door" viewBox="0 0 32 32">
<path d="M21.683 10.976h-10.821c-0.213 0-0.386 0.174-0.386 0.386v4.638h11.594v-4.638c0-0.213-0.174-0.386-0.387-0.386zM23.229 16v2.319c0 0.853-0.693 1.546-1.546 1.546h-3.568l0.193 1.159h1.249c0.321 0 0.58 0.258 0.58 0.58s-0.258 0.58-0.58 0.58h-6.57c-0.321 0-0.58-0.259-0.58-0.58s0.258-0.58 0.58-0.58h1.249l0.193-1.159h-3.568c-0.853 0-1.546-0.693-1.546-1.546v-6.957c0-0.853 0.693-1.546 1.546-1.546h10.821c0.853 0 1.546 0.693 1.546 1.546v4.638zM10.475 17.159v1.159c0 0.213 0.174 0.387 0.386 0.387h4.239c0.007 0 0.015 0 0.019 0h2.3c0.007 0 0.014 0 0.019 0h4.244c0.213 0 0.387-0.174 0.387-0.387v-1.159h-11.594zM15.41 21.024h1.722l-0.193-1.159h-1.336l-0.193 1.159z"></path>
</symbol>
<symbol id="icon-duplicate" viewBox="0 0 32 32">
<path d="M27.275 23.738h-11.294c-2.076 0-3.765-1.688-3.765-3.765v-15.059c0-2.076 1.688-3.765 3.765-3.765h8.241c0.747 0 1.465 0.3 1.994 0.829l3.994 3.994c0.529 0.529 0.829 1.247 0.829 1.994v12.006c0 2.076-1.688 3.765-3.765 3.765zM4.687 8.679h5.647v2.824h-5.647c-0.518 0-0.941 0.424-0.941 0.941v15.059c0 0.518 0.424 0.941 0.941 0.941h11.294c0.518 0 0.941-0.424 0.941-0.941v-1.882h2.824v1.882c0 2.076-1.688 3.765-3.765 3.765h-11.294c-2.076 0-3.765-1.688-3.765-3.765v-15.059c0-2.076 1.688-3.765 3.765-3.765z"></path>
</symbol>
<symbol id="icon-edit" viewBox="0 0 32 32">
<path d="M26.863 4.614l0.712 0.712c0.553 0.553 0.553 1.447 0 1.994l-1.712 1.718-2.712-2.712 1.712-1.712c0.553-0.553 1.447-0.553 1.994 0h0.006zM13.264 16.22l7.894-7.9 2.712 2.712-7.9 7.894c-0.171 0.171-0.382 0.294-0.612 0.359l-3.441 0.982 0.982-3.441c0.065-0.229 0.188-0.441 0.359-0.612l0.006 0.006zM22.869 2.62l-11.606 11.6c-0.512 0.512-0.882 1.141-1.076 1.829l-1.682 5.882c-0.141 0.494-0.006 1.024 0.359 1.388s0.894 0.5 1.388 0.359l5.882-1.682c0.694-0.2 1.324-0.571 1.829-1.077l11.606-11.6c1.653-1.653 1.653-4.335 0-5.988l-0.712-0.712c-1.653-1.653-4.335-1.653-5.988 0zM6.099 4.914c-2.859 0-5.176 2.318-5.176 5.176v16c0 2.859 2.318 5.176 5.176 5.176h16c2.859 0 5.176-2.318 5.176-5.176v-6.588c0-0.782-0.629-1.412-1.412-1.412s-1.412 0.629-1.412 1.412v6.588c0 1.3-1.053 2.353-2.353 2.353h-16c-1.3 0-2.353-1.053-2.353-2.353v-16c0-1.3 1.053-2.353 2.353-2.353h6.588c0.782 0 1.412-0.629 1.412-1.412s-0.629-1.412-1.412-1.412h-6.588z"></path>
</symbol>
<symbol id="icon-email" viewBox="0 0 30 32">
<path fill="#737373" style="fill: var(--color2, #737373)" d="M3.765 8.433c-0.518 0-0.941 0.424-0.941 0.941v1.3l10.147 8.329c1.218 1 2.965 1 4.182 0l10.141-8.329v-1.3c0-0.518-0.424-0.941-0.941-0.941h-22.588zM2.824 14.327v10.106c0 0.518 0.424 0.941 0.941 0.941h22.588c0.518 0 0.941-0.424 0.941-0.941v-10.106l-8.353 6.859c-2.259 1.853-5.512 1.853-7.765 0l-8.353-6.859zM0 9.374c0-2.076 1.688-3.765 3.765-3.765h22.588c2.076 0 3.765 1.688 3.765 3.765v15.059c0 2.076-1.688 3.765-3.765 3.765h-22.588c-2.076 0-3.765-1.688-3.765-3.765v-15.059z"></path>
</symbol>
<symbol id="icon-eye" viewBox="0 0 32 32">
<path fill="#737373" style="fill: var(--color2, #737373)" d="M2.61 4.784c-0.495-0.39-1.214-0.3-1.605 0.195s-0.3 1.214 0.195 1.605l28.191 22.095c0.495 0.39 1.214 0.3 1.605-0.195s0.3-1.214-0.195-1.605l-5.010-3.924c1.886-1.933 3.162-4.1 3.805-5.638 0.157-0.376 0.157-0.795 0-1.171-0.71-1.7-2.2-4.176-4.429-6.243-2.238-2.086-5.319-3.838-9.167-3.838-3.248 0-5.952 1.252-8.062 2.895l-5.329-4.176zM9.8 10.417c1.724-1.224 3.795-2.067 6.2-2.067 3.105 0 5.657 1.41 7.614 3.224 1.833 1.705 3.1 3.729 3.747 5.157-0.6 1.333-1.743 3.181-3.376 4.805l-2.562-2.010c0.433-0.838 0.676-1.786 0.676-2.795 0-3.367-2.729-6.095-6.095-6.095-1.533 0-2.938 0.567-4.009 1.5l-2.195-1.719zM19.567 18.075l-3.881-3.043c0.2-0.405 0.314-0.867 0.314-1.348 0-0.262-0.033-0.519-0.095-0.762 0.033 0 0.062 0 0.095 0 2.105 0 3.81 1.705 3.81 3.81 0 0.471-0.086 0.924-0.243 1.343zM20.014 24.279c-1.214 0.519-2.552 0.833-4.014 0.833-3.105 0-5.657-1.41-7.614-3.224-1.833-1.705-3.1-3.728-3.748-5.157 0.395-0.876 1.024-1.976 1.876-3.086l-1.795-1.414c-1.086 1.414-1.862 2.824-2.314 3.914-0.157 0.376-0.157 0.795 0 1.171 0.71 1.7 2.2 4.176 4.429 6.243 2.238 2.086 5.319 3.838 9.167 3.838 2.276 0 4.281-0.614 6.009-1.548l-1.995-1.571zM9.905 16.732c0 3.367 2.729 6.095 6.095 6.095 0.633 0 1.243-0.095 1.819-0.276l-2.676-2.105c-1.119-0.257-2.052-1.010-2.557-2.014l-2.671-2.105c-0.010 0.133-0.014 0.267-0.014 0.405h0.005z"></path>
</symbol>
<symbol id="icon-game" viewBox="0 0 33 32">
<path d="M28.438 10.040c-2.28-4.548-6.845-7.373-11.916-7.373-7.352 0-13.333 5.981-13.333 13.333s5.981 13.333 13.333 13.333c5.071 0 9.636-2.825 11.916-7.373 0.153-0.305 0.183-0.656 0.085-0.983s-0.318-0.603-0.614-0.772l-7.364-4.205 7.363-4.204c0.615-0.352 0.848-1.123 0.531-1.756zM17.194 14.843c-0.204 0.116-0.374 0.285-0.492 0.488s-0.18 0.434-0.18 0.669 0.062 0.466 0.18 0.669c0.118 0.203 0.288 0.372 0.492 0.488l8.231 4.7c-0.965 1.48-2.285 2.696-3.84 3.536s-3.295 1.278-5.062 1.274c-5.881 0-10.667-4.785-10.667-10.667s4.785-10.667 10.667-10.667c1.767-0.004 3.507 0.434 5.062 1.273s2.875 2.055 3.841 3.535l-8.231 4.701z"></path>
<path d="M15.855 12c1.105 0 2-0.895 2-2s-0.895-2-2-2c-1.105 0-2 0.895-2 2s0.895 2 2 2z"></path>
</symbol>
<symbol id="icon-groups" viewBox="0 0 33 32">
<path d="M12.446 13.913c0.461 0 0.904-0.183 1.23-0.509s0.509-0.769 0.509-1.23-0.183-0.904-0.509-1.23c-0.326-0.326-0.768-0.509-1.23-0.509s-0.904 0.183-1.23 0.509c-0.326 0.326-0.509 0.769-0.509 1.23s0.183 0.904 0.509 1.23c0.326 0.326 0.768 0.509 1.23 0.509zM20.446 13.913c0.461 0 0.904-0.183 1.23-0.509s0.509-0.769 0.509-1.23-0.183-0.904-0.509-1.23c-0.326-0.326-0.768-0.509-1.23-0.509s-0.904 0.183-1.23 0.509c-0.326 0.326-0.509 0.769-0.509 1.23s0.183 0.904 0.509 1.23c0.326 0.326 0.768 0.509 1.23 0.509zM9.316 16.928c0 0.254 0.209 0.463 0.463 0.463h4.639c0.004 0 0.009 0 0.015 0-0.578-0.511-0.941-1.256-0.941-2.087 0-0.165 0.015-0.326 0.041-0.485-0.296-0.137-0.624-0.211-0.97-0.211h-0.928c-1.28 0-2.319 1.039-2.319 2.32zM18.127 17.391h4.639c0.257 0 0.463-0.209 0.463-0.463 0-1.28-1.039-2.32-2.32-2.32h-0.926c-0.346 0-0.674 0.076-0.97 0.211 0.028 0.157 0.041 0.32 0.041 0.485 0 0.83-0.365 1.576-0.941 2.087 0.004 0 0.009 0 0.015 0h-0.002zM16.272 14.261c0.137 0 0.273 0.027 0.399 0.079s0.242 0.129 0.338 0.226c0.097 0.097 0.174 0.212 0.226 0.339s0.079 0.262 0.079 0.399c0 0.137-0.027 0.273-0.079 0.399s-0.129 0.242-0.226 0.339c-0.097 0.097-0.212 0.174-0.338 0.226s-0.262 0.079-0.399 0.079c-0.137 0-0.273-0.027-0.399-0.079s-0.242-0.129-0.338-0.226c-0.097-0.097-0.174-0.212-0.226-0.339s-0.079-0.262-0.079-0.399 0.027-0.273 0.079-0.399c0.052-0.127 0.129-0.242 0.226-0.339s0.212-0.174 0.338-0.226 0.262-0.079 0.399-0.079zM16.272 17.391c0.274 0 0.545-0.054 0.799-0.159s0.483-0.259 0.677-0.452 0.347-0.424 0.452-0.677c0.105-0.253 0.159-0.525 0.159-0.799s-0.054-0.545-0.159-0.799c-0.105-0.253-0.259-0.483-0.452-0.677s-0.424-0.348-0.677-0.452c-0.253-0.105-0.525-0.159-0.799-0.159s-0.545 0.054-0.799 0.159c-0.253 0.105-0.483 0.259-0.677 0.452s-0.347 0.424-0.452 0.677c-0.105 0.253-0.159 0.525-0.159 0.799s0.054 0.545 0.159 0.799c0.105 0.253 0.259 0.483 0.452 0.677s0.424 0.348 0.677 0.452c0.253 0.105 0.525 0.159 0.799 0.159zM14.996 19.13h2.552c0.865 0 1.591 0.591 1.796 1.391h-6.143c0.207-0.8 0.933-1.391 1.796-1.391zM14.996 18.087c-1.6 0-2.898 1.298-2.898 2.898 0 0.32 0.259 0.58 0.58 0.58h7.187c0.32 0 0.58-0.259 0.58-0.58 0-1.6-1.298-2.898-2.898-2.898h-2.552z"></path>
</symbol>
<symbol id="icon-invite-teammates" viewBox="0 0 34 32">
<path fill="#6a28ea" style="fill: var(--color3, #6a28ea)" d="M1.058 26.135c0.3-2.275 1.46-4.28 3.14-5.68 1.55-1.285 3.535-2.055 5.7-2.055h4.57c2.165 0 4.15 0.77 5.695 2.055 1.68 1.4 2.84 3.405 3.14 5.68 0.050 0.385 0.075 0.78 0.075 1.18 0 0.82-0.665 1.485-1.485 1.485h-19.425c-0.82 0-1.485-0.665-1.485-1.485 0-0.4 0.025-0.795 0.075-1.18zM5.783 9.6c0-1.697 0.674-3.325 1.875-4.525s2.828-1.875 4.525-1.875c1.697 0 3.325 0.674 4.525 1.875s1.875 2.828 1.875 4.525c0 1.697-0.674 3.325-1.875 4.525s-2.828 1.875-4.525 1.875c-1.697 0-3.325-0.674-4.525-1.875s-1.875-2.828-1.875-4.525zM16.183 9.6c0-1.061-0.421-2.078-1.172-2.828s-1.768-1.172-2.828-1.172c-1.061 0-2.078 0.421-2.828 1.172s-1.172 1.768-1.172 2.828c0 1.061 0.421 2.078 1.172 2.828s1.768 1.172 2.828 1.172c1.061 0 2.078-0.421 2.828-1.172s1.172-1.768 1.172-2.828zM9.898 20.8c-2.39 0-4.475 1.285-5.61 3.2-0.43 0.72-0.72 1.535-0.84 2.4h17.475c-0.020-0.135-0.040-0.265-0.070-0.4-0.145-0.715-0.41-1.39-0.775-2-1.135-1.915-3.22-3.2-5.61-3.2h-4.57zM31.448 28.8h-6.845c0.245-0.44 0.38-0.945 0.38-1.485 0-3.25-1.475-6.16-3.795-8.090 0.215-0.020 0.435-0.025 0.66-0.025h3.070c4.455 0 8.065 3.61 8.065 8.065 0 0.85-0.69 1.535-1.535 1.535zM22.583 16c-1.55 0-2.95-0.63-3.965-1.645 0.985-1.33 1.565-2.975 1.565-4.755 0-1.34-0.33-2.605-0.915-3.715 0.93-0.68 2.075-1.085 3.315-1.085 3.095 0 5.6 2.505 5.6 5.6s-2.505 5.6-5.6 5.6z"></path>
</symbol>
<symbol id="icon-more" viewBox="0 0 10 32">
<path d="M5.426 23c-0.796 0-1.559 0.316-2.121 0.879s-0.879 1.326-0.879 2.121 0.316 1.559 0.879 2.121c0.563 0.563 1.326 0.879 2.121 0.879s1.559-0.316 2.121-0.879c0.563-0.563 0.879-1.326 0.879-2.121s-0.316-1.559-0.879-2.121c-0.563-0.563-1.326-0.879-2.121-0.879zM5.426 13c-0.796 0-1.559 0.316-2.121 0.879s-0.879 1.326-0.879 2.121c0 0.796 0.316 1.559 0.879 2.121s1.326 0.879 2.121 0.879 1.559-0.316 2.121-0.879c0.563-0.563 0.879-1.326 0.879-2.121s-0.316-1.559-0.879-2.121-1.326-0.879-2.121-0.879zM8.426 6c0-0.394-0.078-0.784-0.228-1.148s-0.372-0.695-0.65-0.973c-0.279-0.279-0.609-0.5-0.973-0.65s-0.754-0.228-1.148-0.228c-0.394 0-0.784 0.078-1.148 0.228s-0.695 0.372-0.973 0.65c-0.279 0.279-0.5 0.609-0.65 0.973s-0.228 0.754-0.228 1.148c0 0.394 0.078 0.784 0.228 1.148s0.372 0.695 0.65 0.973c0.279 0.279 0.609 0.5 0.973 0.65s0.754 0.228 1.148 0.228c0.394 0 0.784-0.078 1.148-0.228s0.695-0.372 0.973-0.65c0.279-0.279 0.5-0.609 0.65-0.973s0.228-0.754 0.228-1.148z"></path>
</symbol>
<symbol id="icon-notifications" viewBox="0 0 29 32">
<path d="M14.692 0.762c-1.054 0-1.905 0.851-1.905 1.905v1.065c-4.315 0.685-7.619 4.423-7.619 8.935v1.988c0 2.702-0.923 5.327-2.607 7.435l-0.887 1.113c-0.345 0.428-0.411 1.018-0.173 1.512s0.738 0.809 1.286 0.809h23.809c0.548 0 1.048-0.315 1.286-0.809s0.173-1.083-0.173-1.512l-0.887-1.107c-1.685-2.113-2.607-4.738-2.607-7.44v-1.988c0-4.512-3.303-8.25-7.619-8.935v-1.065c0-1.054-0.851-1.905-1.905-1.905zM14.692 6.476h0.476c3.417 0 6.19 2.774 6.19 6.19v1.988c0 2.851 0.827 5.631 2.363 8.012h-18.059c1.536-2.381 2.363-5.161 2.363-8.012v-1.988c0-3.417 2.774-6.19 6.19-6.19h0.476zM18.501 27.429h-7.619c0 1.012 0.399 1.982 1.113 2.696s1.685 1.113 2.696 1.113 1.982-0.399 2.696-1.113c0.714-0.714 1.113-1.684 1.113-2.696z"></path>
</symbol>
<symbol id="icon-password" viewBox="0 0 26 32">
<path fill="#737373" style="fill: var(--color2, #737373)" d="M8.471 9.374v3.765h9.412v-3.765c0-2.6-2.106-4.706-4.706-4.706s-4.706 2.106-4.706 4.706zM5.647 13.139v-3.765c0-4.159 3.371-7.529 7.529-7.529s7.529 3.371 7.529 7.529v3.765h1.882c2.076 0 3.765 1.688 3.765 3.765v11.294c0 2.076-1.688 3.765-3.765 3.765h-18.824c-2.076 0-3.765-1.688-3.765-3.765v-11.294c0-2.076 1.688-3.765 3.765-3.765h1.882zM2.824 16.904v11.294c0 0.518 0.424 0.941 0.941 0.941h18.824c0.518 0 0.941-0.424 0.941-0.941v-11.294c0-0.518-0.424-0.941-0.941-0.941h-18.824c-0.518 0-0.941 0.424-0.941 0.941z"></path>
</symbol>
<symbol id="icon-people" viewBox="0 0 34 32">
<path d="M0.701 26.135c0.3-2.275 1.46-4.28 3.14-5.68 1.55-1.285 3.535-2.055 5.7-2.055h4.57c2.165 0 4.15 0.77 5.695 2.055 1.68 1.4 2.84 3.405 3.14 5.68 0.050 0.385 0.075 0.78 0.075 1.18 0 0.82-0.665 1.485-1.485 1.485h-19.425c-0.82 0-1.485-0.665-1.485-1.485 0-0.4 0.025-0.795 0.075-1.18zM5.426 9.6c0-1.697 0.674-3.325 1.875-4.526s2.828-1.875 4.525-1.875c1.697 0 3.325 0.674 4.526 1.875s1.875 2.828 1.875 4.526-0.674 3.325-1.875 4.525c-1.2 1.2-2.828 1.874-4.526 1.874s-3.325-0.674-4.526-1.874c-1.2-1.2-1.875-2.828-1.875-4.526zM15.826 9.6c0-1.061-0.421-2.078-1.172-2.828s-1.768-1.172-2.828-1.172c-1.061 0-2.078 0.421-2.828 1.172s-1.172 1.768-1.172 2.828c0 1.061 0.421 2.078 1.172 2.828s1.768 1.172 2.828 1.172c1.061 0 2.078-0.421 2.828-1.172s1.172-1.768 1.172-2.828zM9.541 20.8c-2.39 0-4.475 1.285-5.61 3.2-0.43 0.72-0.72 1.535-0.84 2.4h17.475c-0.020-0.135-0.040-0.265-0.070-0.4-0.145-0.715-0.41-1.39-0.775-2-1.135-1.915-3.22-3.2-5.61-3.2h-4.57zM31.091 28.8h-6.845c0.245-0.44 0.38-0.945 0.38-1.485 0-3.25-1.475-6.16-3.795-8.090 0.215-0.020 0.435-0.025 0.66-0.025h3.070c4.455 0 8.065 3.61 8.065 8.065 0 0.85-0.69 1.535-1.535 1.535zM22.226 16c-1.55 0-2.95-0.63-3.965-1.645 0.985-1.33 1.565-2.975 1.565-4.755 0-1.34-0.33-2.605-0.915-3.715 0.93-0.68 2.075-1.085 3.315-1.085 3.095 0 5.6 2.505 5.6 5.6s-2.505 5.6-5.6 5.6z"></path>
</symbol>
<symbol id="icon-plus" viewBox="0 0 29 32">
<path d="M15.757 4.918c0-0.802-0.645-1.446-1.447-1.446s-1.447 0.645-1.447 1.446v9.643h-9.643c-0.802 0-1.447 0.645-1.447 1.446s0.645 1.446 1.447 1.446h9.643v9.643c0 0.802 0.645 1.446 1.447 1.446s1.447-0.645 1.447-1.446v-9.643h9.643c0.802 0 1.447-0.645 1.447-1.446s-0.645-1.446-1.447-1.446h-9.643v-9.643z"></path>
</symbol>
<symbol id="icon-policy" viewBox="0 0 24 32">
<path fill="#f99fda" style="fill: var(--color4, #f99fda)" d="M0.61 3.886c0-2.101 1.708-3.81 3.81-3.81h9.524v7.619c0 1.054 0.851 1.905 1.905 1.905h7.619v17.143c0 2.101-1.708 3.81-3.81 3.81h-15.238c-2.101 0-3.81-1.708-3.81-3.81v-22.857zM7.276 15.314c-0.524 0-0.952 0.428-0.952 0.952s0.429 0.952 0.952 0.952h9.524c0.524 0 0.952-0.429 0.952-0.952s-0.428-0.952-0.952-0.952h-9.524zM7.276 19.124c-0.524 0-0.952 0.428-0.952 0.952s0.429 0.952 0.952 0.952h9.524c0.524 0 0.952-0.429 0.952-0.952s-0.428-0.952-0.952-0.952h-9.524zM7.276 22.933c-0.524 0-0.952 0.428-0.952 0.952s0.429 0.952 0.952 0.952h9.524c0.524 0 0.952-0.429 0.952-0.952s-0.428-0.952-0.952-0.952h-9.524z"></path>
<path fill="#74074e" style="fill: var(--color5, #74074e)" d="M23.467 9.6l-9.524-9.524v7.619c0 1.054 0.851 1.905 1.905 1.905h7.619zM7.276 15.314c-0.524 0-0.952 0.428-0.952 0.952s0.429 0.952 0.952 0.952h9.524c0.524 0 0.952-0.429 0.952-0.952s-0.428-0.952-0.952-0.952h-9.524zM7.276 19.124c-0.524 0-0.952 0.428-0.952 0.952s0.429 0.952 0.952 0.952h9.524c0.524 0 0.952-0.429 0.952-0.952s-0.428-0.952-0.952-0.952h-9.524zM7.276 22.933c-0.524 0-0.952 0.428-0.952 0.952s0.429 0.952 0.952 0.952h9.524c0.524 0 0.952-0.429 0.952-0.952s-0.428-0.952-0.952-0.952h-9.524z"></path>
</symbol>
<symbol id="icon-process" viewBox="0 0 24 32">
<path fill="#5cceff" style="fill: var(--color6, #5cceff)" d="M0.61 4.007c0-2.101 1.708-3.81 3.81-3.81h9.524v7.619c0 1.054 0.851 1.905 1.905 1.905h7.619v17.143c0 2.101-1.708 3.81-3.81 3.81h-15.238c-2.101 0-3.81-1.708-3.81-3.81v-22.857zM7.276 15.436c-0.524 0-0.952 0.429-0.952 0.952s0.429 0.952 0.952 0.952h9.524c0.524 0 0.952-0.428 0.952-0.952s-0.428-0.952-0.952-0.952h-9.524zM7.276 19.245c-0.524 0-0.952 0.429-0.952 0.952s0.429 0.952 0.952 0.952h9.524c0.524 0 0.952-0.428 0.952-0.952s-0.428-0.952-0.952-0.952h-9.524zM7.276 23.055c-0.524 0-0.952 0.429-0.952 0.952s0.429 0.952 0.952 0.952h9.524c0.524 0 0.952-0.428 0.952-0.952s-0.428-0.952-0.952-0.952h-9.524z"></path>
<path fill="#020044" style="fill: var(--color7, #020044)" d="M23.467 9.722l-9.524-9.524v7.619c0 1.054 0.851 1.905 1.905 1.905h7.619zM7.276 15.436c-0.524 0-0.952 0.429-0.952 0.952s0.429 0.952 0.952 0.952h9.524c0.524 0 0.952-0.428 0.952-0.952s-0.428-0.952-0.952-0.952h-9.524zM7.276 19.245c-0.524 0-0.952 0.429-0.952 0.952s0.429 0.952 0.952 0.952h9.524c0.524 0 0.952-0.428 0.952-0.952s-0.428-0.952-0.952-0.952h-9.524zM7.276 23.055c-0.524 0-0.952 0.429-0.952 0.952s0.429 0.952 0.952 0.952h9.524c0.524 0 0.952-0.428 0.952-0.952s-0.428-0.952-0.952-0.952h-9.524z"></path>
</symbol>
<symbol id="icon-rename" viewBox="0 0 32 32">
<path d="M3.064 22.379l-1.353 4.594-0.729 2.482c-0.147 0.5-0.012 1.035 0.353 1.4s0.9 0.5 1.394 0.359l7.082-2.088c0.729-0.212 1.394-0.582 1.965-1.082 0.082-0.071 0.159-0.147 0.235-0.224l17.894-17.888c1.288-1.288 1.447-3.271 0.482-4.735-0.135-0.206-0.3-0.406-0.482-0.588l-2.318-2.324c-1.471-1.471-3.853-1.471-5.323 0l-17.894 17.894c-0.612 0.612-1.059 1.371-1.306 2.2zM5.769 23.173c0.1-0.329 0.265-0.635 0.494-0.894 0.035-0.035 0.065-0.071 0.1-0.106l13.441-13.435 3.647 3.647-13.435 13.441c-0.276 0.276-0.624 0.482-1 0.594l-4.6 1.353 0.947-3.224 0.406-1.376z"></path>
</symbol>
<symbol id="icon-reports" viewBox="0 0 33 32">
<path d="M12.359 21.217v-10.435c0-0.239 0.196-0.435 0.435-0.435h4.348v2.174c0 0.481 0.389 0.87 0.87 0.87h2.174v7.826c0 0.239-0.196 0.435-0.435 0.435h-6.957c-0.239 0-0.435-0.196-0.435-0.435zM12.794 9.043c-0.959 0-1.739 0.78-1.739 1.739v10.435c0 0.959 0.78 1.739 1.739 1.739h6.957c0.959 0 1.739-0.78 1.739-1.739v-7.976c0-0.462-0.182-0.905-0.508-1.231l-2.462-2.459c-0.326-0.326-0.766-0.508-1.228-0.508h-4.497zM16.924 16.652c0-0.361-0.291-0.652-0.652-0.652s-0.652 0.291-0.652 0.652v3.478c0 0.361 0.291 0.652 0.652 0.652s0.652-0.291 0.652-0.652v-3.478zM19.316 17.522c0-0.361-0.291-0.652-0.652-0.652s-0.652 0.291-0.652 0.652v2.609c0 0.361 0.291 0.652 0.652 0.652s0.652-0.291 0.652-0.652v-2.609zM14.533 18.391c0-0.361-0.291-0.652-0.652-0.652s-0.652 0.291-0.652 0.652v1.739c0 0.361 0.291 0.652 0.652 0.652s0.652-0.291 0.652-0.652v-1.739z"></path>
</symbol>
<symbol id="icon-search" viewBox="0 0 32 32">
<path d="M23.325 13.176c0-1.36-0.268-2.706-0.788-3.962s-1.283-2.397-2.244-3.359c-0.961-0.961-2.103-1.724-3.359-2.244s-2.602-0.788-3.962-0.788c-1.36 0-2.706 0.268-3.962 0.788s-2.397 1.283-3.359 2.244c-0.961 0.961-1.724 2.103-2.244 3.359s-0.788 2.602-0.788 3.962c0 1.36 0.268 2.706 0.788 3.962s1.283 2.397 2.244 3.359c0.961 0.961 2.103 1.724 3.359 2.244s2.602 0.788 3.962 0.788c1.36 0 2.706-0.268 3.962-0.788s2.397-1.283 3.359-2.244c0.962-0.961 1.724-2.103 2.244-3.359s0.788-2.602 0.788-3.962zM20.931 22.471c-2.135 1.835-4.918 2.941-7.959 2.941-6.759 0-12.235-5.477-12.235-12.235s5.476-12.235 12.235-12.235 12.235 5.476 12.235 12.235c0 3.041-1.106 5.824-2.941 7.959l8.312 8.318c0.365 0.365 0.365 0.965 0 1.329s-0.965 0.365-1.329 0l-8.318-8.312z"></path>
</symbol>
<symbol id="icon-question" viewBox="0 0 32 32">
<path d="M28.977 16c0-3.284-1.305-6.433-3.626-8.755s-5.471-3.626-8.755-3.626c-3.284 0-6.433 1.304-8.755 3.626s-3.626 5.471-3.626 8.755c0 3.284 1.304 6.433 3.626 8.755s5.471 3.626 8.755 3.626c3.284 0 6.433-1.304 8.755-3.626s3.626-5.471 3.626-8.755zM1.358 16c0-4.041 1.605-7.917 4.463-10.775s6.734-4.463 10.775-4.463c4.041 0 7.917 1.605 10.775 4.463s4.463 6.734 4.463 10.775c0 4.041-1.605 7.917-4.463 10.775s-6.734 4.463-10.775 4.463c-4.041 0-7.917-1.605-10.775-4.463s-4.463-6.734-4.463-10.775zM11.465 10.601c0.47-1.327 1.732-2.22 3.143-2.22h3.47c2.077 0 3.756 1.685 3.756 3.756 0 1.345-0.72 2.589-1.887 3.262l-1.923 1.101c-0.012 0.774-0.649 1.405-1.429 1.405-0.792 0-1.429-0.637-1.429-1.429v-0.803c0-0.512 0.274-0.982 0.72-1.238l2.637-1.512c0.28-0.161 0.452-0.458 0.452-0.78 0-0.5-0.405-0.899-0.899-0.899h-3.47c-0.202 0-0.381 0.125-0.446 0.315l-0.024 0.071c-0.262 0.744-1.083 1.131-1.821 0.869s-1.131-1.083-0.869-1.821l0.024-0.071-0.006-0.006zM14.692 21.714c0-0.505 0.201-0.99 0.558-1.347s0.842-0.558 1.347-0.558c0.505 0 0.99 0.201 1.347 0.558s0.558 0.842 0.558 1.347-0.201 0.99-0.558 1.347c-0.357 0.357-0.842 0.558-1.347 0.558s-0.99-0.201-1.347-0.558c-0.357-0.357-0.558-0.842-0.558-1.347z"></path>
</symbol>
<symbol id="icon-dots" viewBox="0 0 16 17">
<path d="M4.25 11.98H5.75C6.44062 11.98 7 12.5394 7 13.23V14.73C7 15.4206 6.44062 15.98 5.75 15.98H4.25C3.55937 15.98 3 15.4206 3 14.73V13.23C3 12.5394 3.55937 11.98 4.25 11.98ZM10.25 11.98H11.75C12.4406 11.98 13 12.5394 13 13.23V14.73C13 15.4206 12.4406 15.98 11.75 15.98H10.25C9.55937 15.98 9 15.4206 9 14.73V13.23C9 12.5394 9.55937 11.98 10.25 11.98ZM4.25 10.98C3.55937 10.98 3 10.4206 3 9.72998V8.22998C3 7.53936 3.55937 6.97998 4.25 6.97998H5.75C6.44062 6.97998 7 7.53936 7 8.22998V9.72998C7 10.4206 6.44062 10.98 5.75 10.98H4.25ZM10.25 6.97998H11.75C12.4406 6.97998 13 7.53936 13 8.22998V9.72998C13 10.4206 12.4406 10.98 11.75 10.98H10.25C9.55937 10.98 9 10.4206 9 9.72998V8.22998C9 7.53936 9.55937 6.97998 10.25 6.97998ZM4.25 5.97998C3.55937 5.97998 3 5.42061 3 4.72998V3.22998C3 2.53936 3.55937 1.97998 4.25 1.97998H5.75C6.44062 1.97998 7 2.53936 7 3.22998V4.72998C7 5.42061 6.44062 5.97998 5.75 5.97998H4.25ZM10.25 1.97998H11.75C12.4406 1.97998 13 2.53936 13 3.22998V4.72998C13 5.42061 12.4406 5.97998 11.75 5.97998H10.25C9.55937 5.97998 9 5.42061 9 4.72998V3.22998C9 2.53936 9.55937 1.97998 10.25 1.97998Z" fill="#737373"/>
</symbol>
<symbol id="icon-arrow-back" viewBox="0 0 32 32">
<path d="M2.462 17.087C2.168 16.799 2 16.412 2 15.999s.169-.8.462-1.088l11-10.5a1.5 1.5 0 0 1 2.069 2.169l-8.287 7.919H28.5c.831 0 1.5.669 1.5 1.5s-.669 1.5-1.5 1.5H7.244l8.294 7.912a1.5 1.5 0 0 1-2.069 2.169l-11-10.5-.006.006z"/>
</symbol>
<symbol id="icon-logout" viewBox="0 0 32 32">
<path stroke-linecap="round" stroke-width="2.667" d="M16 5.333H6.667c-.736 0-1.333.597-1.333 1.333v18.667c0 .736.597 1.333 1.333 1.333H16M12 16h15.333M22.667 11.333 27.334 16l-4.667 4.667"/>
</symbol>
<symbol id="icon-send" viewBox="0 0 31 32">
<path fill="#6a28ea" d="M26.602 4.758a.959.959 0 0 0-1.008-.22l-21.12 7.68a.964.964 0 0 0-.62.897.955.955 0 0 0 .62.897l8.246 3.293 6.086-6.106 1.354 1.354-6.115 6.115 3.302 8.247a.96.96 0 0 0 .892.605.962.962 0 0 0 .883-.634l7.68-21.12a.96.96 0 0 0-.202-1.008z" style="fill:var(--color1, #6a28ea)"/>
</symbol>
<symbol id="icon-star" viewBox="0 0 31 32">
<path d="M15.36 12.019 16.563 16h3.61l-2.906 2.074 1.19 3.853-3.098-2.355-3.098 2.355 1.19-3.853L10.545 16h3.61l1.203-3.981zm0-8.819-3.098 10.24H2.56l7.898 5.645L7.463 28.8l7.898-6.003 7.91 6.003-3.008-9.715 7.898-5.645h-9.702L15.361 3.2z"/>
</symbol>
<symbol id="icon-arrow-top" viewBox="0 0 31 32">
<path d="M24.677 21.722c-.45 0-.85-.15-1.15-.45l-8.45-8.45-8.5 8.45c-.6.65-1.65.65-2.25 0-.65-.6-.65-1.65 0-2.25l9.6-9.6c.6-.65 1.65-.65 2.25 0l9.6 9.6c.65.6.65 1.65 0 2.25-.3.3-.7.45-1.1.45z"/>
</symbol>
<symbol id="icon-game" viewBox="0 0 33 32">
<path d="M17.546 5.048a2.457 2.457 0 0 0-1.732-.715h-7.82a2.443 2.443 0 0 0-2.447 2.443v9.781A2.443 2.443 0 0 0 7.995 19h7.819a2.443 2.443 0 0 0 2.447-2.443v-9.78a2.466 2.466 0 0 0-.715-1.729ZM6.954 5.74c.277-.275.65-.43 1.04-.43h7.82a1.459 1.459 0 0 1 1.467 1.467v4.4H6.527v-4.4a1.458 1.458 0 0 1 .426-1.037Zm9.9 11.853c-.276.275-.65.43-1.04.43h-7.82a1.459 1.459 0 0 1-1.467-1.467v-4.399h10.753v4.4a1.458 1.458 0 0 1-.426 1.036Z"/>
<path d="M10.438 14.6h-.49v-.49a.49.49 0 0 0-.977 0v.49h-.49a.49.49 0 0 0 0 .976h.49v.49a.49.49 0 1 0 .976 0v-.49h.49a.49.49 0 1 0 0-.976ZM15.388 14.05a.495.495 0 0 0-.692 0l-.349.348-.343-.348a.495.495 0 0 0-.8.159.485.485 0 0 0 .107.533l.349.348-.349.344a.49.49 0 1 0 .693.692l.343-.348.349.348a.486.486 0 0 0 .833-.346c0-.13-.05-.253-.141-.346l-.349-.344.349-.348a.495.495 0 0 0 0-.692Z"/>
</symbol>
</defs>
</svg>
